<?xml version="1.0" standalone="no"?>
<!DOCTYPE svg PUBLIC "-//W3C//DTD SVG 20010904//EN"
 "http://www.w3.org/TR/2001/REC-SVG-20010904/DTD/svg10.dtd">
<svg version="1.0" xmlns="http://www.w3.org/2000/svg"
 width="225.000000pt" height="225.000000pt" viewBox="0 0 225.000000 225.000000"
 preserveAspectRatio="xMidYMid meet">

<g transform="translate(0.000000,225.000000) scale(0.100000,-0.100000)"
fill="#000000" stroke="none">
<path d="M0 1125 l0 -1125 1125 0 1125 0 0 156 c0 101 -3 153 -10 149 -6 -4
-10 5 -10 19 0 14 4 26 9 26 5 0 8 31 7 70 -1 48 -5 70 -13 70 -8 0 -14 -14
-14 -32 -3 -65 -7 -81 -23 -90 -9 -5 -16 -16 -16 -24 0 -8 5 -12 10 -9 6 4 10
-5 10 -19 0 -21 -5 -26 -25 -26 -13 0 -28 -7 -33 -16 -11 -19 -110 -31 -204
-26 -47 3 -58 8 -64 24 -7 25 18 54 54 61 15 3 52 13 82 21 30 9 78 16 107 16
29 0 53 5 53 10 0 6 5 9 11 8 6 -2 13 2 16 8 3 9 -15 8 -64 -1 -74 -14 -129
-10 -137 10 -2 7 16 29 40 49 24 20 44 43 44 49 0 7 14 21 30 30 17 10 30 22
30 28 0 5 6 9 13 9 6 0 31 18 55 40 l42 39 0 801 0 800 -1125 0 -1125 0 0
-1125z m1755 -935 c3 -5 2 -10 -4 -10 -5 0 -13 5 -16 10 -3 6 -2 10 4 10 5 0
13 -4 16 -10z m109 -9 c9 -14 -92 -33 -112 -21 -13 7 -3 9 36 10 28 0 52 5 52
10 0 13 17 13 24 1z m-69 -151 c25 0 27 -2 13 -11 -21 -12 -70 -7 -75 8 -2 6
4 10 14 8 10 -2 32 -4 48 -5z"/>
</g>
</svg>
